<?xml version="1.0" encoding="utf-8"?>
<!-- Generator: Adobe Illustrator 16.0.0, SVG Export Plug-In . SVG Version: 6.00 Build 0)  -->
<!DOCTYPE svg PUBLIC "-//W3C//DTD SVG 1.1//EN" "http://www.w3.org/Graphics/SVG/1.1/DTD/svg11.dtd">
<svg version="1.1" id="Ebene_1" xmlns="http://www.w3.org/2000/svg" xmlns:xlink="http://www.w3.org/1999/xlink" x="0px" y="0px"
	 width="500px" height="500px" viewBox="0 0 500 500" enable-background="new 0 0 500 500" xml:space="preserve">
<g>
	<path fill="#C1292E" d="M248.391,2.983C112.658,2.983,2.627,113.575,2.627,250s110.031,247.018,245.764,247.018
		c135.729,0,245.762-110.594,245.762-247.018S384.12,2.983,248.391,2.983z M248.391,437.256
		C145.497,437.256,62.083,353.42,62.083,250c0-103.419,83.414-187.255,186.308-187.255c102.891,0,186.302,83.835,186.302,187.255
		C434.692,353.42,351.281,437.256,248.391,437.256z"/>
	<path fill="#C1292E" d="M366.155,132.16l-0.607-0.608c-14.785-14.866-38.763-14.866-53.551,0l-63.489,63.812l-63.486-63.812
		c-14.79-14.866-38.766-14.866-53.551,0l-0.608,0.608c-14.787,14.863-14.787,38.961,0,53.824l63.487,63.812l-63.487,63.813
		c-14.787,14.865-14.787,38.963,0,53.826l0.608,0.607c14.785,14.865,38.761,14.865,53.551,0l63.486-63.811l63.489,63.811
		c14.788,14.865,38.766,14.865,53.551,0l0.607-0.607c14.788-14.863,14.788-38.961,0-53.826l-63.487-63.813l63.487-63.812
		C380.943,171.121,380.943,147.023,366.155,132.16z"/>
</g>
</svg>
