<svg id="Capa_1" enable-background="new 0 0 512 512" height="512" viewBox="0 0 512 512" width="512" xmlns="http://www.w3.org/2000/svg"><g><g><g><g><path d="m5.506 419.781 217.394-367.414c14.954-25.274 51.247-25.274 66.201 0l217.394 367.414c15.334 25.916-3.178 58.806-33.1 58.806h-434.789c-29.922.001-48.434-32.889-33.1-58.806z" fill="#fd4755"/><g><path d="m180.893 478.588h292.5c29.922 0 48.435-32.89 33.1-58.806l-158.836-268.449c6.291 26.836 9.325 57.2 6.028 90.319-15.599 156.693-158.311 229.751-167.557 234.288-1.776.92-3.515 1.795-5.235 2.648z" fill="#fb2b3a"/><path d="m38.6 447.75c-6.328-.218-9.846-6.086-6.502-12.163l217.393-367.414c3.359-5.265 9.738-5.196 13.005 0l217.393 367.413c3.358 6.1-.131 11.942-6.502 12.163h-434.787z" fill="#fed402"/><path d="m354.851 224.261c-.203 5.709-.58 11.504-1.166 17.391-10.375 104.221-76.976 171.429-123.145 206.098h242.847c6.371-.221 9.86-6.063 6.502-12.163z" fill="#f7bc09"/></g></g><g fill="#554e56"><path d="m256 334.94c-5.508 0-10.091-4.232-10.529-9.722l-10.158-127.318c-.963-12.074 8.575-22.404 20.687-22.404 12.112 0 21.651 10.33 20.687 22.404l-10.158 127.318c-.438 5.49-5.021 9.722-10.529 9.722z"/><circle cx="256" cy="381.727" r="16.588"/></g></g></g></g></svg>