<?xml version="1.0" encoding="utf-8"?>
<!-- Generator: Adobe Illustrator 16.0.0, SVG Export Plug-In . SVG Version: 6.00 Build 0)  -->
<!DOCTYPE svg PUBLIC "-//W3C//DTD SVG 1.1//EN" "http://www.w3.org/Graphics/SVG/1.1/DTD/svg11.dtd">
<svg version="1.1" id="Ebene_1" xmlns="http://www.w3.org/2000/svg" xmlns:xlink="http://www.w3.org/1999/xlink" x="0px" y="0px"
	 width="500px" height="500px" viewBox="0 0 500 500" enable-background="new 0 0 500 500" xml:space="preserve">
<circle fill="#325BA7" cx="250" cy="250.832" r="247.166"/>
<g>
	<path fill="#FFFFFF" d="M416.402,279.779v-23.717h-23.774l0.175-72.075h-23.949l-0.23-23.969h-23.716v-23.926h-24.18l0.464-23.715
		h-48.127l-0.32-48.128h-47.779v47.779l-47.779,0.087v24.064l-23.89-0.174l-0.174,24.064l-23.715-0.174l-0.349,24.063l-23.686,0.087
		l-0.059,72.017H81.599v23.717h23.715v96.254H81.599v23.715l334.804,0.002v-24.18h-23.6v-95.443L416.402,279.779z M153.208,375.512
		h-23.947v-95.646h23.947V375.512z M152.977,231.904h-23.483v-23.846h23.948L152.977,231.904z M200.872,375.512h-23.482v-95.646
		h23.482V375.512z M201.337,231.904l-24.181,0.095v-23.94h24.181V231.904z M249.001,375.512H224.82v-95.646h24.181V375.512z
		 M249.001,231.904l-24.124,0.095v-23.94h24.133L249.001,231.904z M272.831,208.059h24.064v23.846h-24.064V208.059z
		 M297.129,375.512H273.18v-95.646h23.949V375.512z M320.784,208.059h23.89v23.846l-23.89,0.095V208.059z M344.675,375.512h-23.714
		v-95.646h23.714V375.512z"/>
</g>
</svg>
