<?xml version="1.0" encoding="utf-8"?>
<!-- Generator: Adobe Illustrator 16.0.0, SVG Export Plug-In . SVG Version: 6.00 Build 0)  -->
<!DOCTYPE svg PUBLIC "-//W3C//DTD SVG 1.1//EN" "http://www.w3.org/Graphics/SVG/1.1/DTD/svg11.dtd">
<svg version="1.1" id="Ebene_1" xmlns="http://www.w3.org/2000/svg" x="0px" y="0px"
     width="500px" height="500px" viewBox="0 0 500 500" enable-background="new 0 0 500 500" xml:space="preserve">
<g>
	<path fill="#325BA7" stroke="#000000" stroke-miterlimit="10" d="M493.918,317.677v-34.545H459.29l0.255-104.98h-34.882
		l-0.336-34.911h-34.543v-34.849h-35.219l0.677-34.542h-70.099l-0.466-70.1h-69.592v69.591l-69.592,0.128v35.051l-34.796-0.255
		l-0.253,35.049l-34.542-0.253l-0.509,35.049l-34.499,0.126l-0.086,104.896H6.267v34.545h34.542v140.194H6.267v34.543l487.652,0.002
		v-35.218h-34.374V318.182L493.918,317.677z M127.568,457.112h-34.88V317.8h34.88V457.112z M127.231,247.944H93.029v-34.731h34.879
		L127.231,247.944z M196.992,457.112h-34.203V317.8h34.203V457.112z M197.67,247.944l-35.222,0.136v-34.867h35.222V247.944z
		 M267.094,457.112h-35.222V317.8h35.222V457.112z M267.094,247.944l-35.138,0.136v-34.867h35.15L267.094,247.944z M301.803,213.212
		h35.05v34.731h-35.05V213.212z M337.194,457.112h-34.883V317.8h34.883V457.112z M371.647,213.212h34.798v34.731l-34.798,0.14
		V213.212z M406.446,457.112h-34.54V317.8h34.54V457.112z"/>
</g>
</svg>
