<?xml version="1.0" encoding="utf-8"?>
<!-- Generator: Adobe Illustrator 16.0.0, SVG Export Plug-In . SVG Version: 6.00 Build 0)  -->
<!DOCTYPE svg PUBLIC "-//W3C//DTD SVG 1.1//EN" "http://www.w3.org/Graphics/SVG/1.1/DTD/svg11.dtd">
<svg version="1.1" id="Ebene_1" xmlns="http://www.w3.org/2000/svg" xmlns:xlink="http://www.w3.org/1999/xlink" x="0px" y="0px"
	 width="144px" height="144px" viewBox="0 0 144 144" enable-background="new 0 0 144 144" xml:space="preserve">
<g id="surface1359306">
	<path fill="#FFAB40" stroke="#CCCCCC" stroke-linejoin="round" stroke-miterlimit="10" d="M143.356,76.595v42.178h-22.006V72.927
		c0-6.966-5.87-12.834-12.836-12.834c-6.971,0-12.835,5.868-12.835,12.834v45.846H73.673V72.927c0-6.966-5.869-12.834-12.835-12.834
		c-6.971,0-12.835,5.868-12.835,12.834v45.846H25.996V76.595c0-19.067,15.769-34.837,34.842-34.837
		c9.167,0,17.601,3.668,23.838,9.532c6.233-5.864,14.667-9.532,23.839-9.532C127.582,41.758,143.356,57.527,143.356,76.595z"/>
	<path stroke="#CCCCCC" stroke-linejoin="round" stroke-miterlimit="10" d="M5.825,42.491h3.668v57.942H5.825V42.491z"/>
	<path fill="#424242" stroke="#CCCCCC" stroke-linejoin="round" stroke-miterlimit="10" d="M66.337,30.755
		c4.037,1.467,9.537,7.335,11.004,11.003c-6.603,6.233-9.537,10.634-11.004,22.002c-0.364,4.037-3.298,6.238-7.335,3.668
		C47.634,60.461,37,60.092,29.664,60.092c-3.667-3.668-1.836-13.569,0-18.334l22.002,3.668L66.337,30.755z"/>
	<path fill="#616161" stroke="#CCCCCC" stroke-linejoin="round" stroke-miterlimit="10" d="M51.666,45.426H0.321l40.346-25.675
		h51.344L51.666,45.426z"/>
	<path fill="#424242" stroke="#CCCCCC" stroke-linejoin="round" stroke-miterlimit="10" d="M7.657,107.769
		c-2.934,0-5.499-6.602-5.499-14.666c0-8.068,2.565-14.671,5.499-14.671s5.504,6.603,5.504,14.671
		C13.161,101.167,10.591,107.769,7.657,107.769z"/>
	<path fill="#FFAB40" d="M108.515,41.758c-9.172,0-17.605,3.668-23.839,9.532c-6.237-5.864-14.671-9.532-23.838-9.532
		c-19.073,0-34.842,15.77-34.842,34.837v42.178h22.007V72.927c0-6.966,5.864-12.834,12.835-12.834
		c6.966,0,12.835,5.868,12.835,12.834v45.846H95.68V72.927c0-6.966,5.864-12.834,12.835-12.834c6.966,0,12.836,5.868,12.836,12.834
		v45.846h22.006V76.595C143.356,57.527,127.582,41.758,108.515,41.758z"/>
	<path d="M5.825,42.491h3.668v57.942H5.825V42.491z"/>
	<path fill="#424242" d="M66.337,30.755c4.037,1.467,9.537,7.335,11.004,11.003c-6.603,6.233-9.537,10.634-11.004,22.002
		c-0.364,4.037-3.298,6.238-7.335,3.668C47.634,60.461,37,60.092,29.664,60.092c-3.667-3.668-1.836-13.569,0-18.334l22.002,3.668
		L66.337,30.755z"/>
	<path fill="#616161" d="M51.666,45.426H0.321l40.346-25.675h51.344L51.666,45.426z"/>
	<path fill="#424242" d="M13.161,93.103c0-8.068-2.57-14.671-5.504-14.671s-5.499,6.603-5.499,14.671
		c0,8.064,2.565,14.666,5.499,14.666S13.161,101.167,13.161,93.103z"/>
</g>
</svg>
