<?xml version="1.0" encoding="utf-8"?>
<!-- Generator: Adobe Illustrator 16.0.0, SVG Export Plug-In . SVG Version: 6.00 Build 0)  -->
<!DOCTYPE svg PUBLIC "-//W3C//DTD SVG 1.1//EN" "http://www.w3.org/Graphics/SVG/1.1/DTD/svg11.dtd">
<svg version="1.1" id="Ebene_1" xmlns="http://www.w3.org/2000/svg" xmlns:xlink="http://www.w3.org/1999/xlink" x="0px" y="0px"
	 width="48px" height="48px" viewBox="0 0 48 48" enable-background="new 0 0 48 48" xml:space="preserve">
<path fill="#1565C0" d="M43.568,38.315c0,0,3.429-0.467,4.117-3.779c0.078-0.371,0.12-0.776,0.12-1.221
	c0-0.275-0.018-0.537-0.052-0.788c-0.508-3.749-4.572-4.591-4.572-4.591s0.707-4.036-3.018-6.151c-3.725-2.113-7.126,0-7.126,0
	s-1.992-4.037-7.386-4.037c-6.934,0-8.09,7.881-8.09,7.881s-6.547,0.387-6.547,6.151c0,5.766,5.971,6.535,5.971,6.535L43.568,38.315
	L43.568,38.315z"/>
<path fill="#1565C0" d="M8.641,31.781c0-5.218,3.9-7.5,6.973-8.243c1.066-3.506,4.016-8.163,10.041-8.163
	c0.007,0,0.013,0.001,0.02,0.001c0.009,0,0.016-0.001,0.024-0.001c4.181,0,6.777,1.954,8.179,3.505
	c0.771-0.227,1.719-0.407,2.786-0.407c0.005,0,0.008,0.001,0.013,0.001c0.004,0,0.007,0,0.012,0c0.025,0,0.047,0.005,0.071,0.005
	c0.044-0.338-0.746-8.646-10.299-8.646c-6.533,0-8.838,5.567-8.838,5.567s-4.738-3.519-9.604,1.345
	C5.52,19.242,6.097,23.08,6.097,23.08s-5.763,0.577-5.763,6.722c0.001,5.566,5.956,6.141,5.956,6.141h3.332
	C9.021,34.805,8.641,33.435,8.641,31.781z"/>
</svg>
