<?xml version="1.0" encoding="utf-8"?>
<!-- Generator: Adobe Illustrator 16.0.0, SVG Export Plug-In . SVG Version: 6.00 Build 0)  -->
<!DOCTYPE svg PUBLIC "-//W3C//DTD SVG 1.1//EN" "http://www.w3.org/Graphics/SVG/1.1/DTD/svg11.dtd">
<svg version="1.1" id="Capa_1" xmlns="http://www.w3.org/2000/svg" xmlns:xlink="http://www.w3.org/1999/xlink" x="0px" y="0px"
	 width="500px" height="500px" viewBox="0 0 500 500" enable-background="new 0 0 500 500" xml:space="preserve">
<g>
	<path d="M374.86,240.246c-2.118-4.247-5.557-7.687-9.805-9.804l-174.857-87.429c-10.796-5.397-23.929-1.016-29.327,9.78
		c-1.518,3.036-2.301,6.389-2.301,9.779V337.43c0,12.068,9.78,21.86,21.848,21.86c3.39,0,6.744-0.783,9.78-2.301l174.857-87.429
		C375.851,264.175,380.244,251.054,374.86,240.246z M202.291,302.069V197.933l104.125,52.068L202.291,302.069z"/>
	<polygon points="330.833,249.996 191.834,317.667 194.167,178.667 	"/>
</g>
<circle fill="none" stroke="#000000" stroke-width="64" stroke-miterlimit="10" cx="250" cy="250" r="214.661"/>
</svg>
