<?xml version="1.0" encoding="utf-8"?>
<!-- Generator: Adobe Illustrator 16.0.0, SVG Export Plug-In . SVG Version: 6.00 Build 0)  -->
<!DOCTYPE svg PUBLIC "-//W3C//DTD SVG 1.1//EN" "http://www.w3.org/Graphics/SVG/1.1/DTD/svg11.dtd">
<svg version="1.1" id="Layer_1" xmlns="http://www.w3.org/2000/svg" x="0px" y="0px"
     width="500px" height="500px" viewBox="0 0 500 500" enable-background="new 0 0 500 500" xml:space="preserve">
<polygon fill="#507C5C" points="357.508,246.063 357.508,25.197 147.344,25.197 147.344,246.063 47.336,246.063 252.425,474.802 
	457.515,246.063 "/>
<g>
	<path fill="#507C5C" d="M252.425,495.843c-7.771,0-15.098-3.077-19.799-8.317L27.54,258.783
		c-5.708-6.363-6.662-14.918-2.462-22.073c4.197-7.158,12.824-11.686,22.262-11.686h75.153V25.196
		c0-11.617,11.127-21.039,24.855-21.039h210.16c13.728,0,24.855,9.421,24.855,21.039v199.826h75.151
		c9.44,0,18.067,4.525,22.263,11.686c4.199,7.156,3.245,15.709-2.463,22.074l-205.087,228.74
		C267.525,492.766,260.198,495.843,252.425,495.843z M97.401,267.102l155.024,172.901l155.023-172.901h-49.94
		c-13.729,0-24.856-9.42-24.856-21.039V46.235H172.199v199.826c0,11.617-11.127,21.039-24.855,21.039L97.401,267.102L97.401,267.102
		z"/>
</g>
</svg>
