<?xml version="1.0" encoding="utf-8"?>
<!-- Generator: Adobe Illustrator 16.0.0, SVG Export Plug-In . SVG Version: 6.00 Build 0)  -->
<!DOCTYPE svg PUBLIC "-//W3C//DTD SVG 1.1//EN" "http://www.w3.org/Graphics/SVG/1.1/DTD/svg11.dtd">
<svg version="1.1" id="Ebene_1" xmlns="http://www.w3.org/2000/svg" x="0px" y="0px"
     width="500px" height="500px" viewBox="0 0 500 500" enable-background="new 0 0 500 500" xml:space="preserve">
<g>
	<g>
		<path fill="#8EC044" d="M121.256,134.776l11.314,11.315c21.626-11.513,46.298-18.06,72.507-18.06
			c27.259,0,52.853,7.083,75.088,19.471l35.929-35.93C284.15,90.792,246.027,78.71,205.078,78.71
			c-43.746,0-84.269,13.784-117.476,37.238C100.24,118.939,111.842,125.361,121.256,134.776z"/>
		<path fill="#8EC044" d="M358.996,269.051c0.388,4.461,0.625,8.964,0.625,13.524c0,85.354-69.191,154.545-154.543,154.545
			S50.534,367.93,50.534,282.575c0-5.807,0.348-11.53,0.972-17.172l-30.44-30.44c-4.095-4.097-7.621-8.608-10.551-13.435
			c-6.042,19.275-9.303,39.78-9.303,61.046c0,112.594,91.274,203.866,203.866,203.866c112.591,0,203.867-91.272,203.867-203.866
			c0-19.33-2.692-38.031-7.721-55.753L358.996,269.051z"/>
	</g>
	<path fill="#8EC044" d="M489.017,38.842c-13.027-13.025-34.149-13.025-47.179,0L207.074,273.605L94.749,161.282
		c-13.03-13.03-34.15-13.03-47.178,0c-13.028,13.024-13.028,34.146,0,47.175l135.915,135.915c13.028,13.028,34.15,13.028,47.176,0
		L489.017,86.021C502.045,72.992,502.045,51.87,489.017,38.842z"/>
</g>
</svg>
